<?xml version="1.0" encoding="utf-8"?>
<!-- Generator: Adobe Illustrator 27.2.0, SVG Export Plug-In . SVG Version: 6.00 Build 0)  -->
<svg version="1.1" id="Layer_1" xmlns="http://www.w3.org/2000/svg" xmlns:xlink="http://www.w3.org/1999/xlink" x="0px" y="0px"
	 viewBox="0 0 500 500" style="enable-background:new 0 0 500 500;" xml:space="preserve">
<style type="text/css">
	.st0{fill:#F2786D;}
	.st1{fill:#FAAC47;}
	.st2{fill:#434444;}
	.st3{fill:#555857;}
	.st4{fill:none;stroke:#FFFFFF;stroke-width:7.182;stroke-miterlimit:10;}
	.st5{fill:#FFFFFF;}
	.st6{fill:#3B3A52;}
	.st7{fill:url(#SVGID_1_);}
	.st8{fill:url(#SVGID_00000023247922667543848800000004072851962728930464_);}
	.st9{fill:url(#SVGID_00000108308501452545246770000007457313980050972825_);}
	.st10{fill:url(#SVGID_00000125579732063813109350000011134092530127184520_);}
	.st11{fill:url(#SVGID_00000053545103327988880860000002458834408810411663_);}
	.st12{fill:url(#SVGID_00000053542793542535794830000012705773903761197219_);}
	.st13{fill:url(#SVGID_00000080171732356528779050000010985841750286655899_);}
	.st14{fill:url(#SVGID_00000091736712684423578230000017055991968596670351_);}
	.st15{fill:url(#SVGID_00000129206910064311665990000002451773386775165846_);}
	.st16{fill:url(#SVGID_00000057113729757695175680000010370020652429910683_);}
	.st17{fill:url(#SVGID_00000067952505687420264180000007933063861520925106_);}
	.st18{fill:#F2F2F2;}
	.st19{fill:url(#SVGID_00000013190995597131194110000012109067238841234878_);}
	.st20{fill:url(#SVGID_00000146472457322565107180000011913608153269148301_);}
	.st21{fill:url(#SVGID_00000170279662024517696960000010665230004750708921_);}
	.st22{fill:url(#SVGID_00000162339733248400287910000005290289997930647977_);}
	.st23{fill:url(#SVGID_00000060737427456788511200000003037873583073584026_);}
	.st24{fill:url(#SVGID_00000150811827074049404690000013840247644001915290_);}
	.st25{fill:url(#SVGID_00000112632445473744873630000005068041979286728377_);}
	.st26{fill:url(#SVGID_00000170966044714647049930000001238650187889383845_);}
	.st27{fill:url(#SVGID_00000005241147653504737740000017431754114264597670_);}
	.st28{fill:url(#SVGID_00000133502666427531025260000007195254055380691874_);}
	.st29{fill:url(#SVGID_00000013151027219972161070000001856769799522016645_);}
</style>
<rect x="-787" y="-8" class="st0" width="578" height="542"/>
<rect x="132" y="771" class="st1" width="408" height="408"/>
<rect x="652" y="771" class="st2" width="408" height="408"/>
<text transform="matrix(1 0 0 1 279.9692 868.4268)" class="st3" style="font-family:'AraHamahSahetAlAssi-Regular'; font-size:35.5123px;">كيفارج ممصم</text>
<g>
	<path class="st3" d="M269.58,753.22l-6.67,6.67c-0.53,0.53-1.39,0.53-1.92,0l-6.67-6.67c-1.81-1.81-1.81-4.74,0-6.55l6.67-6.67
		c0.53-0.53,1.39-0.53,1.92,0l6.67,6.67C271.39,748.48,271.39,751.41,269.58,753.22z"/>
</g>
<path class="st4" d="M410.26,876.7c-49.82,6.34-81.74,44.03-79.43,73.42c3.11,39.41,64.11,66.77,108.13,56.07
	c25.99-6.32,50.11-26.96,46.72-35.37c-5.47-13.58-160.15,85.46-209.58,39.38c-18-16.79-17.22-48-29.37-48.06
	c-16.31-0.07-24.51,56.14-44.05,56.07c-6.08-0.02-11.13-5.49-14.68-10.68"/>
<rect x="85" y="-606" class="st2" width="408" height="408"/>
<text transform="matrix(1 0 0 1 -520.0466 -198.2705)" style="fill:#13A89E; font-family:'Dubai-Light'; font-size:28.1033px;">كيفارج ممصم</text>
<g>
	<g>
		<path class="st5" d="M209.52-263.68c-0.03,0.08-0.06,0.16-0.08,0.23c0,0.02-0.01,0.04-0.01,0.06c0.06-0.16,0.11-0.3,0.16-0.44
			c-0.01,0.02-0.02,0.05-0.03,0.07C209.54-263.73,209.53-263.7,209.52-263.68z"/>
		<path class="st5" d="M209.1-261.79c-0.01,0.03-0.01,0.06-0.02,0.08C209.09-261.73,209.09-261.76,209.1-261.79z"/>
		<path class="st5" d="M209.1-261.8c0.03-0.2,0.11-0.63,0.25-1.39c0,0.02-0.01,0.03-0.01,0.04c-0.11,0.57-0.25,1.15-0.37,1.72
			c-0.03,0.18-0.06,0.32-0.08,0.43c-0.03,0.17-0.05,0.34-0.08,0.51c-0.12,0.86-0.22,1.72-0.3,2.58c-0.15,1.7-0.16,1.89-0.1,3.6
			c0.05,1.49,0.19,2.97,0.43,4.44c0.46,2.78,1.3,5.46,2.5,8.01c3.41,6.56,9.08,11.46,15.56,14.88c13.41,7.07,29.5,8.65,44.42,8.58
			c0.68,0,1.35-0.01,2.03-0.03c0.08,0,0.16,0,0.24,0c0,0,0.01,0,0.01,0l2.04-0.06v0c0.05,0,0.09,0,0.14-0.01h0.02
			c15.91-0.59,31.63-3.97,46.25-10.33c15.52-6.95,29.5-17.01,40.96-29.57c1.21-1.33,1,1.48,0.98,1.92c-0.18,2.87-1.25,5.78-2.1,8.51
			c-1.11,3.55-2.47,7.12-4.04,10.49c-0.92,1.98-1.94,4.24-3.44,5.88c-1.82,2-3.71,3.95-5.66,5.83
			c-15.91,15.32-36.03,26.24-57.52,31.31c-9.06,2.13-18.34,3.25-27.65,3.44c-10.35,2.77-20.48,6.33-30.3,10.62
			c-8.49,3.77-16.74,8.07-24.69,12.88c-14.32,8.68-27.64,19-39.62,30.69c-5.92,5.78-11.51,11.9-16.72,18.32
			c-0.41,0.51-0.82,1.01-1.22,1.52c-0.12,0.16-0.37,0.47-0.45,0.57c-0.64,0.82-1.27,1.64-1.89,2.46c-1.13,1.5-2.25,3.02-3.34,4.55
			c-2.51,3.52-4.92,7.12-7.21,10.79c-0.43,0.68-1.54,2.31-1.98,0.84c-0.57-1.9,0.66-4.84,1.15-6.72c1.66-6.34,4.03-12.93,7.51-18.5
			c6.56-10.48,14.03-20.39,22.24-29.63c14.25-16.03,30.89-29.92,49.16-41.13c1.93-1.18,3.89-2.33,5.86-3.46
			c-7.81-3.16-15.2-8.03-19.65-15.34c-6.95-11.42-4.84-24.94-1.63-37.22c2.17-8.32,5.08-16.56,8.48-24.46
			c2.93-6.82,6.1-13.69,10.49-19.72c3.2-4.4,6.91-8.43,11.57-11.29c4.66-2.85,9.98-4.53,15.38-5.19c11.1-1.36,22.66,0.89,33.28,4.05
			c11.19,3.32,21.85,8.29,31.62,14.67c1.01,0.66,0.08,3.57-0.11,4.51c-0.65,3.37-1.81,6.67-2.97,9.9
			c-0.4,1.12-5.34,14.03-6.91,13.01c-11.39-7.43-23.98-12.94-37.2-16.18c-12.33-3.02-26.11-4.82-38.17,0.18
			c-4.92,2.28-9.12,5.68-12.55,9.87c-0.22,0.28-0.43,0.57-0.64,0.86c-0.44,0.61-0.87,1.22-1.28,1.85c-0.31,0.47-0.6,0.95-0.91,1.43
			c-0.05,0.08-0.09,0.15-0.13,0.22c-0.04,0.08-0.09,0.15-0.13,0.23c-0.3,0.54-0.58,1.09-0.87,1.64c-0.06,0.13-0.12,0.26-0.18,0.39
			c0.01-0.02,0.02-0.05,0.02-0.07c-0.02,0.05-0.04,0.09-0.06,0.14c-0.01,0.01-0.01,0.02-0.02,0.04c0,0.01-0.01,0.02-0.01,0.03
			c-0.02,0.05-0.04,0.1-0.06,0.14c0,0.02-0.01,0.03-0.02,0.05c0,0.02-0.01,0.03-0.01,0.05c-0.01,0.03-0.02,0.06-0.03,0.09
			c-0.02,0.05-0.03,0.1-0.05,0.15c0.02-0.06,0.04-0.12,0.06-0.17"/>
	</g>
	<path class="st5" d="M162.14-180.85c-5.11-5.94-10.52-11.59-16.24-16.94c0.02,0.02-4.95,11.58-5.32,12.61
		c-1.09,3.03-2.18,6.07-3.12,9.15c-0.18,0.6-1.38,3.49-0.91,3.93c5.72,5.35,11.14,11,16.24,16.94c0.15,0.17,2.1-4.24,1.82-3.6
		c1.26-2.96,2.4-5.99,3.49-9.01c1.09-3.03,2.18-6.07,3.12-9.15C161.43-177.59,162.61-180.31,162.14-180.85z"/>
</g>
<g>
	<g>
		<path class="st0" d="M201.3,190.16c-0.03,0.09-0.07,0.19-0.1,0.28c-0.01,0.03-0.01,0.05-0.02,0.08c0.07-0.19,0.13-0.37,0.19-0.53
			c-0.01,0.03-0.03,0.06-0.04,0.08C201.33,190.1,201.32,190.13,201.3,190.16z"/>
		<path class="st0" d="M200.8,192.45c-0.01,0.04-0.01,0.08-0.02,0.1C200.78,192.52,200.79,192.49,200.8,192.45z"/>
		<path class="st0" d="M200.8,192.43c0.04-0.24,0.14-0.76,0.3-1.68c-0.01,0.02-0.01,0.04-0.02,0.05c-0.13,0.69-0.3,1.39-0.45,2.08
			c-0.04,0.22-0.07,0.39-0.1,0.52c-0.03,0.21-0.07,0.41-0.09,0.62c-0.15,1.04-0.27,2.08-0.36,3.13c-0.18,2.06-0.2,2.29-0.13,4.36
			c0.06,1.8,0.23,3.6,0.52,5.38c0.55,3.37,1.58,6.62,3.03,9.71c4.14,7.95,11,13.89,18.86,18.03c16.26,8.57,35.76,10.48,53.85,10.4
			c0.82,0,1.64-0.02,2.46-0.03c0.1,0,0.19,0,0.29-0.01c0,0,0.01,0,0.01,0l2.47-0.07v0c0.06,0,0.11,0,0.17-0.01h0.02
			c19.28-0.72,38.34-4.81,56.07-12.52c18.81-8.42,35.76-20.62,49.66-35.85c1.47-1.61,1.22,1.8,1.18,2.33
			c-0.22,3.48-1.51,7-2.55,10.32c-1.34,4.3-3,8.63-4.89,12.72c-1.11,2.4-2.35,5.14-4.17,7.13c-2.21,2.43-4.49,4.79-6.86,7.06
			c-19.29,18.57-43.68,31.81-69.73,37.95c-10.98,2.59-22.24,3.94-33.51,4.17c-12.55,3.36-24.82,7.68-36.73,12.88
			c-10.29,4.57-20.3,9.78-29.93,15.61c-17.35,10.52-33.51,23.03-48.02,37.21c-7.17,7.01-13.95,14.43-20.27,22.21
			c-0.5,0.61-0.99,1.23-1.48,1.85c-0.15,0.19-0.44,0.56-0.54,0.69c-0.77,0.99-1.53,1.98-2.29,2.98c-1.37,1.82-2.72,3.65-4.05,5.51
			c-3.05,4.27-5.96,8.63-8.74,13.08c-0.52,0.82-1.87,2.8-2.4,1.02c-0.69-2.3,0.79-5.87,1.39-8.14c2.01-7.69,4.88-15.67,9.11-22.43
			c7.95-12.7,17.01-24.72,26.96-35.91c17.27-19.43,37.44-36.26,59.6-49.85c2.34-1.44,4.71-2.83,7.1-4.19
			c-9.47-3.83-18.43-9.74-23.82-18.59c-8.43-13.84-5.86-30.23-1.97-45.12c2.63-10.09,6.16-20.08,10.28-29.65
			c3.56-8.27,7.4-16.6,12.71-23.91c3.88-5.33,8.37-10.22,14.03-13.69c5.65-3.46,12.09-5.49,18.64-6.3
			c13.46-1.65,27.47,1.08,40.35,4.9c13.57,4.02,26.49,10.04,38.33,17.78c1.22,0.8,0.09,4.33-0.13,5.47c-0.78,4.09-2.2,8.08-3.59,12
			c-0.49,1.36-6.47,17.01-8.37,15.77c-13.81-9.01-29.07-15.69-45.09-19.61c-14.95-3.66-31.65-5.85-46.27,0.22
			c-5.97,2.76-11.05,6.88-15.22,11.97c-0.26,0.34-0.52,0.69-0.77,1.04c-0.53,0.73-1.05,1.48-1.55,2.24
			c-0.38,0.57-0.73,1.16-1.1,1.73c-0.06,0.1-0.11,0.19-0.16,0.26c-0.05,0.09-0.11,0.18-0.16,0.28c-0.36,0.66-0.71,1.32-1.05,1.99
			c-0.07,0.16-0.15,0.32-0.22,0.47c0.01-0.03,0.02-0.06,0.03-0.08c-0.02,0.05-0.05,0.11-0.07,0.17c-0.01,0.02-0.01,0.03-0.02,0.04
			c-0.01,0.01-0.01,0.03-0.01,0.04c-0.03,0.06-0.05,0.12-0.07,0.17c-0.01,0.02-0.01,0.04-0.02,0.05c0,0.02-0.01,0.04-0.01,0.05
			c-0.01,0.04-0.03,0.07-0.04,0.11c-0.02,0.06-0.04,0.12-0.06,0.18c0.03-0.07,0.05-0.14,0.08-0.21"/>
	</g>
	<path class="st0" d="M143.88,290.56c-6.19-7.2-12.75-14.04-19.69-20.53c0.02,0.02-6,14.04-6.44,15.28
		c-1.33,3.67-2.64,7.35-3.78,11.09c-0.22,0.72-1.67,4.24-1.11,4.76c6.94,6.49,13.5,13.33,19.69,20.53c0.18,0.21,2.54-5.14,2.21-4.36
		c1.53-3.59,2.91-7.26,4.23-10.92c1.33-3.67,2.64-7.35,3.78-11.09C143.01,294.51,144.44,291.21,143.88,290.56z"/>
</g>
<g>
	<rect x="891.93" y="-0.04" class="st6" width="410.04" height="410.04"/>
	<g>
		<g>
			<g>
				<linearGradient id="SVGID_1_" gradientUnits="userSpaceOnUse" x1="1242.303" y1="265.9151" x2="976.5975" y2="126.0332">
					<stop  offset="0" style="stop-color:#F8AC98"/>
					<stop  offset="1" style="stop-color:#D58895"/>
				</linearGradient>
				<polygon class="st7" points="1046.43,139.64 1058.56,139.64 1058.56,171.53 1006.92,171.53 1006.92,159.4 1026.67,159.4 
					1026.67,151.78 1006.92,151.78 1006.92,139.64 1038.81,139.64 1038.81,159.4 1046.43,159.4 				"/>
				
					<linearGradient id="SVGID_00000077287366389243728120000000771549555528092055_" gradientUnits="userSpaceOnUse" x1="1234.3743" y1="280.9756" x2="968.6688" y2="141.0936">
					<stop  offset="0" style="stop-color:#F8AC98"/>
					<stop  offset="1" style="stop-color:#D58895"/>
				</linearGradient>
				
					<rect x="1046.43" y="179.16" style="fill:url(#SVGID_00000077287366389243728120000000771549555528092055_);" width="12.13" height="12.13"/>
				
					<linearGradient id="SVGID_00000131361204184530965040000013565878308688687033_" gradientUnits="userSpaceOnUse" x1="1254.524" y1="242.7012" x2="988.8185" y2="102.8193">
					<stop  offset="0" style="stop-color:#F8AC98"/>
					<stop  offset="1" style="stop-color:#D58895"/>
				</linearGradient>
				<path style="fill:url(#SVGID_00000131361204184530965040000013565878308688687033_);" d="M1145.21,159.4v12.13h29.63v7.62
					h-37.26V159.4h-31.89v19.76h-7.62V159.4h-31.89v12.13h19.76v7.62h-19.76v12.13h120.8V159.4H1145.21z M1117.83,179.16v-7.62h7.62
					v7.62H1117.83z"/>
			</g>
			<g>
				
					<linearGradient id="SVGID_00000133498986189594786140000008164906253781253813_" gradientUnits="userSpaceOnUse" x1="1229.6562" y1="289.9376" x2="963.9507" y2="150.0556">
					<stop  offset="0" style="stop-color:#F8AC98"/>
					<stop  offset="1" style="stop-color:#D58895"/>
				</linearGradient>
				<polygon style="fill:url(#SVGID_00000133498986189594786140000008164906253781253813_);" points="999.29,179.16 1038.81,179.16 
					1038.81,191.29 987.16,191.29 987.16,139.64 999.29,139.64 				"/>
			</g>
			<g>
				
					<linearGradient id="SVGID_00000026876112299066720210000010560718388029181110_" gradientUnits="userSpaceOnUse" x1="1268.8833" y1="215.4259" x2="1003.1778" y2="75.5439">
					<stop  offset="0" style="stop-color:#F8AC98"/>
					<stop  offset="1" style="stop-color:#D58895"/>
				</linearGradient>
				<polygon style="fill:url(#SVGID_00000026876112299066720210000010560718388029181110_);" points="1206.74,139.64 
					1206.74,191.29 1194.6,191.29 1194.6,151.78 1066.18,151.78 1066.18,139.64 				"/>
			</g>
			<g>
				
					<linearGradient id="SVGID_00000002352969750905064530000007213053717899009417_" gradientUnits="userSpaceOnUse" x1="1238.6676" y1="272.8206" x2="972.9621" y2="132.9386">
					<stop  offset="0" style="stop-color:#F8AC98"/>
					<stop  offset="1" style="stop-color:#D58895"/>
				</linearGradient>
				<polygon style="fill:url(#SVGID_00000002352969750905064530000007213053717899009417_);" points="1206.74,198.91 
					1206.74,270.32 1125.46,270.32 1125.46,258.18 1194.6,258.18 1194.6,198.91 				"/>
				
					<linearGradient id="SVGID_00000017500782326855085530000012411843579345546658_" gradientUnits="userSpaceOnUse" x1="1197.0811" y1="351.8141" x2="931.3755" y2="211.9321">
					<stop  offset="0" style="stop-color:#F8AC98"/>
					<stop  offset="1" style="stop-color:#D58895"/>
				</linearGradient>
				
					<rect x="987.16" y="238.43" style="fill:url(#SVGID_00000017500782326855085530000012411843579345546658_);" width="12.13" height="12.13"/>
				
					<linearGradient id="SVGID_00000018927109093626316740000008121856078018753160_" gradientUnits="userSpaceOnUse" x1="1188.9376" y1="367.2826" x2="923.2321" y2="227.4006">
					<stop  offset="0" style="stop-color:#F8AC98"/>
					<stop  offset="1" style="stop-color:#D58895"/>
				</linearGradient>
				
					<rect x="987.16" y="258.18" style="fill:url(#SVGID_00000018927109093626316740000008121856078018753160_);" width="12.13" height="12.13"/>
				
					<linearGradient id="SVGID_00000029759945259474040150000006901629170885629118_" gradientUnits="userSpaceOnUse" x1="1206.0869" y1="334.7074" x2="940.3815" y2="194.8254">
					<stop  offset="0" style="stop-color:#F8AC98"/>
					<stop  offset="1" style="stop-color:#D58895"/>
				</linearGradient>
				
					<rect x="1066.18" y="258.18" style="fill:url(#SVGID_00000029759945259474040150000006901629170885629118_);" width="12.14" height="12.13"/>
				
					<linearGradient id="SVGID_00000009552204027644182900000017172626459385055885_" gradientUnits="userSpaceOnUse" x1="1211.0153" y1="325.3461" x2="945.3098" y2="185.4641">
					<stop  offset="0" style="stop-color:#F8AC98"/>
					<stop  offset="1" style="stop-color:#D58895"/>
				</linearGradient>
				<polygon style="fill:url(#SVGID_00000009552204027644182900000017172626459385055885_);" points="1038.81,238.43 
					1058.56,238.43 1058.56,270.32 1006.92,270.32 1006.92,230.8 987.16,230.8 987.16,218.67 1019.05,218.67 1019.05,258.18 
					1046.43,258.18 1046.43,250.56 1026.67,250.56 1026.67,218.67 1078.32,218.67 1078.32,238.43 1085.94,238.43 1085.94,218.67 
					1107.95,218.67 1107.95,230.8 1098.08,230.8 1098.08,250.56 1066.18,250.56 1066.18,230.8 1038.81,230.8 				"/>
				
					<linearGradient id="SVGID_00000003801805896096229310000001791765716101702017_" gradientUnits="userSpaceOnUse" x1="1232.2366" y1="285.0362" x2="966.5311" y2="145.1543">
					<stop  offset="0" style="stop-color:#F8AC98"/>
					<stop  offset="1" style="stop-color:#D58895"/>
				</linearGradient>
				<polygon style="fill:url(#SVGID_00000003801805896096229310000001791765716101702017_);" points="1186.98,198.91 
					1186.98,250.56 1117.83,250.56 1117.83,270.32 1085.94,270.32 1085.94,258.18 1105.7,258.18 1105.7,238.43 1155.09,238.43 
					1155.09,230.8 1115.58,230.8 1115.58,218.67 1167.22,218.67 1167.22,238.43 1174.85,238.43 1174.85,211.05 987.16,211.05 
					987.16,198.91 				"/>
			</g>
		</g>
	</g>
</g>
<g>
	<rect x="1517.29" y="-20.71" class="st18" width="391.71" height="391.71"/>
	<g>
		<g>
			
				<linearGradient id="SVGID_00000008110601402831735980000007652126900068844975_" gradientUnits="userSpaceOnUse" x1="1828.0818" y1="193.3008" x2="1039.4884" y2="-297.2415">
				<stop  offset="0" style="stop-color:#F2786C"/>
				<stop  offset="0.5" style="stop-color:#EF4D3E"/>
				<stop  offset="1" style="stop-color:#ED3324"/>
			</linearGradient>
			<polygon style="fill:url(#SVGID_00000008110601402831735980000007652126900068844975_);" points="1839.86,154.19 1839.86,196.1 
				1757.93,196.1 1757.93,188.49 1832.24,188.49 1832.24,154.19 			"/>
			
				<linearGradient id="SVGID_00000048502002903956009600000015517289044603148187_" gradientUnits="userSpaceOnUse" x1="1826.4871" y1="195.8645" x2="1037.8937" y2="-294.6779">
				<stop  offset="0" style="stop-color:#F2786C"/>
				<stop  offset="0.5" style="stop-color:#EF4D3E"/>
				<stop  offset="1" style="stop-color:#ED3324"/>
			</linearGradient>
			<path style="fill:url(#SVGID_00000048502002903956009600000015517289044603148187_);" d="M1803.66,165.62v7.61h17.15v3.82h-20.97
				v-11.43h-19.05v11.43h-3.82v-11.43h-19.05v7.61h11.43v3.82h-11.43v7.61h70.5v-19.05H1803.66z M1788.41,177.05v-3.82h3.82v3.82
				H1788.41z"/>
		</g>
		<g>
			
				<linearGradient id="SVGID_00000072983210233167291130000001604469389583725756_" gradientUnits="userSpaceOnUse" x1="1762.1775" y1="299.2483" x2="973.5841" y2="-191.2941">
				<stop  offset="0" style="stop-color:#F2786C"/>
				<stop  offset="0.5" style="stop-color:#EF4D3E"/>
				<stop  offset="1" style="stop-color:#ED3324"/>
			</linearGradient>
			
				<rect x="1586.43" y="188.49" style="fill:url(#SVGID_00000072983210233167291130000001604469389583725756_);" width="7.61" height="7.61"/>
			
				<linearGradient id="SVGID_00000121240417782546179150000001501265387111888556_" gradientUnits="userSpaceOnUse" x1="1767.3057" y1="291.0043" x2="978.7122" y2="-199.538">
				<stop  offset="0" style="stop-color:#F2786C"/>
				<stop  offset="0.5" style="stop-color:#EF4D3E"/>
				<stop  offset="1" style="stop-color:#ED3324"/>
			</linearGradient>
			
				<rect x="1586.43" y="177.05" style="fill:url(#SVGID_00000121240417782546179150000001501265387111888556_);" width="7.61" height="7.61"/>
			
				<linearGradient id="SVGID_00000047744960529957159860000018146459816341014942_" gradientUnits="userSpaceOnUse" x1="1776.077" y1="276.9035" x2="987.4836" y2="-213.6388">
				<stop  offset="0" style="stop-color:#F2786C"/>
				<stop  offset="0.5" style="stop-color:#EF4D3E"/>
				<stop  offset="1" style="stop-color:#ED3324"/>
			</linearGradient>
			<polygon style="fill:url(#SVGID_00000047744960529957159860000018146459816341014942_);" points="1645.49,165.62 1645.49,184.67 
				1626.45,184.67 1626.45,173.23 1616.91,173.23 1616.91,177.05 1622.63,177.05 1622.63,196.1 1597.86,196.1 1597.86,173.23 
				1586.43,173.23 1586.43,165.62 1605.48,165.62 1605.48,188.49 1615.01,188.49 1615.01,184.67 1609.3,184.67 1609.3,165.62 
				1634.06,165.62 1634.06,177.05 1637.88,177.05 1637.88,165.62 			"/>
		</g>
		<g>
			
				<linearGradient id="SVGID_00000033349807004112819280000007846002293579394737_" gradientUnits="userSpaceOnUse" x1="1802.3922" y1="234.5993" x2="1013.7988" y2="-255.9431">
				<stop  offset="0" style="stop-color:#F2786C"/>
				<stop  offset="0.5" style="stop-color:#EF4D3E"/>
				<stop  offset="1" style="stop-color:#ED3324"/>
			</linearGradient>
			<polygon style="fill:url(#SVGID_00000033349807004112819280000007846002293579394737_);" points="1719.81,188.49 1742.67,188.49 
				1742.67,196.1 1712.19,196.1 1712.19,165.62 1719.81,165.62 			"/>
			
				<linearGradient id="SVGID_00000033336169882333417810000000512452935444185992_" gradientUnits="userSpaceOnUse" x1="1806.8339" y1="227.459" x2="1018.2404" y2="-263.0833">
				<stop  offset="0" style="stop-color:#F2786C"/>
				<stop  offset="0.5" style="stop-color:#EF4D3E"/>
				<stop  offset="1" style="stop-color:#ED3324"/>
			</linearGradient>
			
				<rect x="1746.49" y="188.49" style="fill:url(#SVGID_00000033336169882333417810000000512452935444185992_);" width="7.61" height="7.61"/>
			
				<linearGradient id="SVGID_00000179610090394839655350000018052769859282913456_" gradientUnits="userSpaceOnUse" x1="1811.3359" y1="220.2214" x2="1022.7426" y2="-270.321">
				<stop  offset="0" style="stop-color:#F2786C"/>
				<stop  offset="0.5" style="stop-color:#EF4D3E"/>
				<stop  offset="1" style="stop-color:#ED3324"/>
			</linearGradient>
			<polygon style="fill:url(#SVGID_00000179610090394839655350000018052769859282913456_);" points="1754.11,165.62 1754.11,184.67 
				1723.63,184.67 1723.63,177.05 1735.06,177.05 1735.06,173.23 1723.63,173.23 1723.63,165.62 1742.67,165.62 1742.67,177.05 
				1746.49,177.05 1746.49,165.62 			"/>
		</g>
		<g>
			
				<linearGradient id="SVGID_00000069398841222269598290000001675789222113007522_" gradientUnits="userSpaceOnUse" x1="1773.3416" y1="281.301" x2="984.7482" y2="-209.2414">
				<stop  offset="0" style="stop-color:#F2786C"/>
				<stop  offset="0.5" style="stop-color:#EF4D3E"/>
				<stop  offset="1" style="stop-color:#ED3324"/>
			</linearGradient>
			
				<rect x="1626.45" y="188.49" style="fill:url(#SVGID_00000069398841222269598290000001675789222113007522_);" width="7.61" height="7.61"/>
		</g>
		<g>
			
				<linearGradient id="SVGID_00000129900806415682194030000012819848366708734346_" gradientUnits="userSpaceOnUse" x1="1812.9307" y1="217.6577" x2="1024.3373" y2="-272.8846">
				<stop  offset="0" style="stop-color:#F2786C"/>
				<stop  offset="0.5" style="stop-color:#EF4D3E"/>
				<stop  offset="1" style="stop-color:#ED3324"/>
			</linearGradient>
			<polygon style="fill:url(#SVGID_00000129900806415682194030000012819848366708734346_);" points="1828.42,154.19 1828.42,161.8 
				1708.38,161.8 1708.38,196.1 1660.74,196.1 1660.74,188.49 1700.76,188.49 1700.76,154.19 			"/>
			
				<linearGradient id="SVGID_00000180352047973424119990000018223000019987146683_" gradientUnits="userSpaceOnUse" x1="1791.3999" y1="252.2705" x2="1002.8065" y2="-238.2718">
				<stop  offset="0" style="stop-color:#F2786C"/>
				<stop  offset="0.5" style="stop-color:#EF4D3E"/>
				<stop  offset="1" style="stop-color:#ED3324"/>
			</linearGradient>
			<polygon style="fill:url(#SVGID_00000180352047973424119990000018223000019987146683_);" points="1696.94,184.67 1656.93,184.67 
				1656.93,196.1 1637.88,196.1 1637.88,188.49 1649.31,188.49 1649.31,165.62 1656.93,165.62 1656.93,177.05 1677.89,177.05 
				1677.89,173.23 1660.74,173.23 1660.74,165.62 1685.51,165.62 1685.51,177.05 1689.33,177.05 1689.33,161.8 1586.43,161.8 
				1586.43,154.19 1696.94,154.19 			"/>
		</g>
	</g>
</g>
</svg>
